<svg xmlns="http://www.w3.org/2000/svg" width="556" height="556">
  <path fill="#FEB921" d="M238.972 84.4c5.821-.403 16.128.868 22.879.871l42.757-.033c3.435-.014 11.795-1.332 14.364.618.848 2.807.558 12.849.553 16.535l-.024 22.627-.029 22.25c-.006 4.191.111 9.326-.191 13.438 6.725-.206 14.215-.048 20.985-.038l37.528.058c6.853.017 14.966.31 21.674-.045.493-9.873-.694-72.209.629-74.902 2.821-.837 19.564-.517 23.523-.525l42.466-.252c5.716.554 9.529-.428 14.607-.256 1.174 1.601 1.978 2.356 1.574 4.503-.499 3.08-.365 8.096-.365 11.351l-.015 17.4-.073 63.731c.017 5.827.033 11.651.218 17.476.053 1.699.079 3.395-.159 5.083-2.206 1.626-21.064 1.027-25.219 1.014l-36.862.057-245.901.013-65.881.074-18.43.086c-4.266.02-9.456.207-13.599-.396-.492-8.753-.28-19.119-.291-27.993l-.024-48.704-.101-26.873c-.015-3.716-.36-12.213.4-15.546.418-.44.794-.809 1.512-.811 3.707-.011 7.684.046 11.367.036l22.483-.237 33.856.248c2.362.03 10.126-.825 11.632.378.649 3.382.355 17.646.356 21.801l-.286 53.227c20.568.271 41.261-.245 61.837.001 6.163.074 12.554.096 18.701-.246l.02-50.232c.008-7.336-.577-14.92.012-22.334.114-1.442.725-2.254 1.517-3.453Z"/>
  <path fill="#E1022E" d="M379.912 232.852c2.698.567 5.641 6.626 7.28 9.006 8.541 12.408 17.407 24.829 27.758 35.811 3.266 3.383 6.675 6.117 10.25 9.213 12.885 11.161 28.916 22.588 46.073 25.5 2.02.343 9.132 1.166 10.037 2.334 1.585 4.99.274 36.624.48 44.155.023.839-.368 2.443-.696 3.284-1.233.622-3.616-.062-4.92-.158-35.372-2.611-64.789-22.679-90.134-46.069-1.696-1.565-3.378-4.132-5.12-6.028l-.229-.247c-4.875 3.589-10.705 10.411-15.508 14.613-30.161 26.387-71.139 45.65-111.638 34.279-2.666-.749-5.456-1.184-8.078-2.1-22.566-8.24-42.084-21.353-59.452-37.851-2.768-2.629-5.644-5.913-8.55-8.2l-.292-.227c-2.635 1.476-10.052 9.816-13.345 12.573-18.605 16.035-37.277 28.517-61.278 34.973-4.828 1.299-22.929 5.808-26.462 3.858a10.974 10.974 0 0 1-.496-3.275c.107-12.571.094-25.142.063-37.713-.006-2.367-.066-4.857.433-7.17 7.8-.049 18.61-2.249 25.705-5.917 19.011-9.829 35.593-23.552 49.403-39.843 8.816-10.4 15.508-20.859 23.362-31.848 1.718-2.403 3.358-2.753 5.216-.186 15.189 22.714 31.694 45.212 54.507 60.852 12.533 8.634 26.445 16.583 42.234 16.829 19.486.663 39.086-9.892 53.835-21.939 6.385-5.216 13.713-12.428 19.402-18.512 2.808-3.002 6.518-7.023 8.888-10.307 5.279-7.313 10.611-14.656 15.609-22.17 1.499-2.273 3.695-5.738 5.663-7.52Z"/>
  <path fill="#2DB1A4" d="M211.739 452.718c-9.795-9.817-19.482-17.398-33.97-17.781-24.326-.642-36.268 21.286-54.086 33.537-10.618 7.281-22.969 11.355-35.554 13.456-2.677.447-9.943 2.658-11.927 1.37-1.15-2.586-.624-10.655-.616-13.773l-.074-17.13c-.003-4.645-.487-9.394-.322-14.016.023-.635.102-1.287.314-1.889.192-.546.506-.997 1.043-1.243 1.554-.71 4.099.004 5.824-.133 4.325-.345 8.748-2.625 12.422-4.783 8.241-4.841 16.436-14.39 24.232-20.612 9.003-7.186 17.102-13.296 27.973-17.602 12.764-5.057 33.969-5.837 47.469-3.433 6.501 1.157 13.9 3.741 19.84 6.642 11.005 5.376 20.415 14.096 29.456 22.21 4.937 4.431 9.866 9.178 15.562 12.643 9.797 5.959 22.009 5.92 32.625 2.349 9.476-3.188 17.948-10.807 24.975-17.793 2.17-2.158 4.191-4.536 6.548-6.491 2.706-2.246 5.638-4.205 8.528-6.202 2.127-1.47 4.202-3.038 6.428-4.357 12.782-7.571 26.897-10.007 41.558-10.106 14.068-.094 26.174 2.389 38.849 8.661 12.378 6.126 22.396 16.642 32.743 25.592 2.656 2.298 5.262 4.707 8.135 6.735 4.418 3.118 10.404 5.133 15.662 6.187 1.541.309 3.713.159 5.129.765.67.287.998.862 1.199 1.54.821 2.768.308 37.405-.032 42.188-.091 1.278-.196 2.604-.813 3.748-1.342 1.039-2.993.812-4.584.646-22.712-2.366-42.231-12.244-58.485-28.218-11.974-11.767-23.579-22.212-41.915-19.862-8.488 1.088-13.692 2.401-20.237 8.112-6.407 4.592-11.564 10.883-17.512 15.95-7.182 6.119-18.176 13.714-26.919 17.323-16.555 6.834-40.291 8.605-57.291 2.625-1.744-.916-5.169-1.994-7.076-2.689-11.977-4.366-21.535-12.287-30.956-20.65-1.148-1.019-2.462-2.259-3.71-3.194l-.435-.322Z"/>
</svg>
