<svg xmlns="http://www.w3.org/2000/svg" xml:space="preserve" width="591.549" height="648.913" viewBox="0 0 156.514 171.692"><path d="M26.77 148.5V62.654h156.515v171.692H26.77Zm9.03 79.14c.423-.144.809-.531.956-.959.064-.185.135-.591.158-.903l.041-.566h-1.438l-.073.632c-.063.553-.095.65-.256.79-.215.184-.363.198-.571.052-.259-.181-.317-.577-.316-2.161 0-1.63.056-1.915.405-2.074.39-.178.706.23.714.924l.004.326h1.442v-.4c0-.62-.171-1.098-.51-1.425-.365-.351-.779-.477-1.55-.472-1.039.007-1.624.416-1.908 1.331-.153.495-.172 3.126-.026 3.692.144.56.419.934.84 1.144.323.16.446.182 1.06.182q.697 0 1.027-.113m9.258-.025c.673-.252.952-.699.997-1.598.023-.458.003-.677-.085-.906-.133-.349-.533-.739-.951-.926-1.327-.596-1.35-.61-1.468-.856-.098-.206-.103-.283-.031-.522.095-.316.315-.445.638-.374.226.05.297.16.364.564l.048.292H46v-.228c0-.411-.191-.902-.454-1.165-.331-.331-.811-.488-1.503-.492-.71-.004-1.13.121-1.507.453-.38.335-.553.761-.553 1.363 0 .942.403 1.452 1.493 1.888.347.139.715.313.82.387.387.276.38.99-.013 1.193-.277.143-.443.13-.657-.055-.143-.123-.192-.239-.219-.515l-.034-.357h-1.425v.414c0 .789.364 1.29 1.099 1.514.094.028.503.055.907.058.579.005.815-.024 1.104-.132m39.058-.005c.731-.33.998-.851 1.116-2.175.093-1.052-.004-2.335-.222-2.916-.18-.48-.609-.886-1.083-1.024-.45-.13-1.344-.116-1.773.03-.367.125-.762.476-.941.837-.395.795-.423 3.315-.05 4.314.16.427.544.827.927.967.173.063.542.102.995.104.584.003.78-.024 1.03-.137m-1.325-.956q-.175-.138-.25-.485c-.098-.46-.085-2.828.018-3.217.167-.63.698-.728.973-.178.125.25.137.412.137 1.786 0 1.611-.05 1.932-.33 2.128-.198.14-.338.13-.548-.034m28.528 1.02q.59-.197.877-.806l.18-.386.022-2.489.022-2.49h-1.514l-.02 2.513-.02 2.513-.163.131c-.2.163-.297.165-.483.011-.108-.089-.157-.23-.19-.55l-.043-.428h-1.354v.365c0 .774.317 1.337.893 1.586.292.126 1.449.146 1.792.03m28.146-.023c.552-.194.87-.56 1.08-1.243.184-.594.184-3.03 0-3.634-.248-.817-.665-1.193-1.488-1.34-.836-.151-1.725.066-2.122.519-.11.124-.271.406-.36.626-.153.38-.16.482-.16 2.015 0 1.528.007 1.635.158 2.01.21.522.446.79.867.986.291.136.457.162 1.042.162.44 0 .8-.036.983-.1m-1.212-.963c-.278-.195-.33-.519-.33-2.094 0-1.597.052-1.91.348-2.103.24-.158.554-.067.701.203.104.189.12.432.12 1.866 0 1.781-.038 2.01-.352 2.154-.225.102-.31.098-.487-.026m12.143.985c.7-.242 1.078-.768 1.14-1.588.06-.807-.164-1.347-.703-1.703-.15-.098-.56-.297-.911-.441-.751-.308-.976-.523-.976-.935 0-.198.047-.319.169-.441.35-.35.862-.086.862.446v.278h1.442l-.002-.36c-.002-.405-.171-.833-.42-1.062-.426-.392-1.25-.567-2.04-.434-.617.104-1.034.363-1.293.803-.177.302-.195.391-.195.984 0 .59.019.684.192.978.235.4.5.585 1.367.95.79.335 1.017.55 1.017.967 0 .215-.046.32-.21.484-.18.181-.243.204-.463.169-.347-.056-.495-.256-.495-.67v-.337h-1.53l.047.464c.08.792.357 1.193.982 1.423.326.12 1.695.136 2.019.025zm10.822.007c.106-.04.275-.152.375-.247l.182-.174.047.213.046.212h1.02v-3.365h-2.06v1.03h.684l-.04.43c-.077.803-.412 1.178-.838.939-.32-.18-.376-.492-.38-2.09-.002-1.55.056-1.945.316-2.127.208-.146.356-.132.571.053.144.123.192.239.219.515l.034.357h1.444l-.035-.482c-.048-.669-.29-1.055-.833-1.334-.354-.18-.47-.204-1.028-.207-.852-.005-1.236.116-1.627.509-.488.49-.562.795-.598 2.475-.035 1.599.05 2.214.376 2.74.283.457.65.626 1.363.626.313 0 .656-.033.762-.073m14.959-.09c.411-.195.6-.388.78-.8.245-.558.3-1.073.27-2.48-.027-1.178-.048-1.376-.187-1.73-.335-.86-.855-1.17-1.962-1.176-.62-.003-.726.016-1.087.193-.834.409-1.042 1.008-1.042 2.997 0 1.958.21 2.583 1.003 2.978.327.163.439.18 1.122.18.654 0 .807-.023 1.103-.163m-1.405-.933c-.23-.23-.29-.648-.29-2.063 0-.792.033-1.472.079-1.641.136-.506.467-.691.809-.452.256.18.317.58.317 2.093 0 .897-.03 1.512-.083 1.697-.135.466-.549.649-.832.366m-136.198.426.098-.566h1.402l.113.56c.062.308.124.572.138.586s.364.017.777.006l.752-.02-.756-3.073-.757-3.073h-1.87l-.77 3.039c-.424 1.671-.77 3.063-.769 3.093s.35.045.774.034l.77-.02zm10.448-1.871v-2.473h1.236v-1.236h-4.052v1.236h1.305v4.945h1.511zm5.288 1.854v-.618h-2.198v-1.301l.979-.02.979-.018.02-.601.02-.601h-1.998v-1.168h2.06v-1.236h-3.571v6.181h3.709zm4.052 0v-.618h-2.129v-4.945H54.79v6.181h3.571zm3.846 0v-.618h-2.129v-4.945h-1.511v6.181h3.64zm5.185.512c.952-.248 1.273-.849 1.375-2.572.082-1.395-.146-2.506-.616-2.994-.42-.437-.749-.509-2.317-.509h-1.292v6.181h1.222c.879 0 1.335-.03 1.628-.106m-1.34-2.985v-2.01l.342.04c.45.053.612.148.727.425.227.543.182 2.701-.066 3.181-.12.232-.187.266-.658.328l-.344.046zm6.55 2.902.114-.584.077-.394h1.411l.096.566.097.567.773.02c.506.012.772-.006.772-.054 0-.06-1.217-4.98-1.448-5.855l-.068-.258h-1.844l-.067.258c-.038.141-.392 1.532-.787 3.09l-.72 2.833h1.558zm5.126-1.082v-1.27h.34c.255 0 .384.04.523.158.178.153.185.19.237 1.15.029.546.075 1.047.102 1.113.042.105.152.12.865.12.45 0 .817-.02.817-.046s-.051-.103-.114-.172c-.088-.098-.125-.345-.167-1.117-.036-.666-.089-1.058-.16-1.195-.132-.256-.424-.49-.615-.495-.124-.002-.115-.018.06-.111.524-.277.718-.65.72-1.382.002-.578-.114-.91-.43-1.236-.35-.362-.698-.427-2.294-.427h-1.395v6.181h1.511zm15.933.07v-1.203h.538c.633 0 1.09-.122 1.43-.381.778-.593.807-2.317.05-2.981-.388-.341-.785-.415-2.237-.415h-1.292v6.181h1.511zm8.17.737c.14-.778.057-.71.847-.689l.697.02.106.55.107.549.77.02c.425.01.772-.001.772-.026 0-.045-1.319-5.406-1.446-5.88l-.07-.26h-1.843l-.071.256c-.04.142-.342 1.324-.673 2.627-.33 1.304-.612 2.3-.624 2.215-.021-.152-.035-.154-1.081-.154h-1.06v-4.95l-.738.02-.739.02-.017 2.987c-.01 1.643-.004 3.026.015 3.073.025.067.59.086 2.5.086h2.466zm5.496-2.008v-2.473h1.305v-1.236h-4.052v1.236h1.236v4.945h1.511zm6.999 1.871.096-.566h1.41l.069.326c.038.18.09.442.116.584l.048.257h.79c.601 0 .781-.02.758-.086-.018-.047-.368-1.438-.78-3.09l-.748-3.005h-1.856l-.755 2.966a283 283 0 0 0-.778 3.093c-.02.118.032.125.756.107l.777-.02zm8.763.44c.777-.341 1.044-.954 1.111-2.557.081-1.919-.209-2.83-1.043-3.28-.256-.139-.37-.148-1.717-.148H120l-.018 2.987c-.01 1.643-.002 3.03.018 3.08.058.15 2.72.08 3.09-.083m-1.614-2.93v-2.01l.393.046c.745.088.88.443.827 2.17-.045 1.487-.13 1.66-.865 1.757l-.355.047zm6.652 2.49.098-.566h1.411l.037.188.113.584.077.395h1.55l-.423-1.734a886 886 0 0 0-.761-3.09l-.338-1.357h-1.862l-.773 3.04a170 170 0 0 0-.77 3.092c0 .03.349.045.773.034l.77-.02zm5.091-.67v-1.27h.344c.589 0 .65.125.717 1.477.057 1.154-.022 1.064.94 1.064.448 0 .815-.016.815-.037s-.048-.11-.106-.2c-.076-.115-.122-.447-.16-1.152-.062-1.13-.14-1.342-.578-1.558-.228-.113-.246-.137-.128-.175.279-.088.612-.553.7-.975.171-.822-.128-1.587-.736-1.887-.312-.153-.415-.164-1.825-.185l-1.493-.022v6.191h1.51zm22.186.704.1-.566.699-.02c.792-.022.71-.089.848.69l.082.463h.79c.603 0 .782-.02.757-.086a252 252 0 0 1-.774-3.092l-.743-3.007-.932.02-.933.018-.736 2.885c-.405 1.586-.755 2.97-.778 3.073l-.042.189h1.561zm9.277 0 .098-.566.68-.02c.456-.013.695.006.727.06.027.043.088.306.136.586l.087.507h.78c.429 0 .78-.016.78-.035s-.344-1.41-.765-3.092l-.764-3.058-.93.02-.931.018-.775 3.022a248 248 0 0 0-.777 3.074c-.001.028.348.051.777.051h.78zm5.073-.703v-1.271h.336c.467 0 .612.137.696.652.036.227.067.665.067.975s.03.641.067.738c.067.175.072.176.859.176.637 0 .791-.019.791-.097 0-.054-.035-.11-.079-.124-.05-.016-.109-.43-.162-1.137-.094-1.244-.151-1.4-.58-1.584l-.257-.11.286-.182c.346-.219.519-.553.568-1.097.07-.767-.203-1.365-.758-1.662-.27-.143-.388-.155-1.816-.175l-1.528-.022v6.19h1.51zm-80.714-.287a.89.89 0 0 0 .5-.812c0-.709-.76-1.154-1.353-.793-.313.191-.444.427-.444.8 0 .379.152.624.497.8.295.15.492.151.8.006zm55.398.02c.363-.152.524-.412.524-.848 0-.334-.025-.401-.228-.604-.28-.28-.638-.363-.993-.227-.71.27-.757 1.32-.075 1.656.284.14.477.146.772.023m-74.448-1.716c.286-.12.57-.456.661-.784.039-.14.071-.68.071-1.2v-.944H69.35v1.58h.276c.266 0 .275.007.234.189-.088.396-.116.442-.31.51-.184.064-.2.096-.2.406 0 .33.005.337.208.337.115 0 .31-.042.433-.094m55.63-.106c.426-.263.542-.623.58-1.802l.032-1.02h-1.46v1.58h.274c.226 0 .275.023.275.133 0 .263-.14.498-.344.575-.19.071-.206.103-.206.415v.337l.304-.034c.167-.02.412-.102.544-.184m27.174.045c.235-.118.346-.234.477-.498.154-.309.174-.443.197-1.356l.025-1.013h-1.462l.02.773.02.772.257.022c.198.016.257.05.257.15 0 .26-.142.494-.344.57-.188.072-.205.105-.205.407 0 .325.002.328.226.328.124 0 .363-.07.532-.155m-116.586-7.218c-1.383-.676-2.262-1.64-2.77-3.04a8.3 8.3 0 0 1-.483-2.337c-.036-.51-.056.265-.063 2.466l-.01 3.21h3.939zm18.96-.035c-.793-.383-1.378-.805-1.903-1.372-1.217-1.315-1.964-3.316-2.283-6.123-.25-2.198-.298-6.338-.101-8.825.294-3.727 1.093-5.968 2.661-7.466.513-.49 1.43-1.106 1.78-1.196.504-.13-.175-.163-3.38-.163h-3.535l-.025 9.804c-.027 10.619-.005 9.99-.393 11.405-.502 1.832-1.685 3.268-3.324 4.037l-.486.228 5.838.001 5.837.001zm19.332.275c0-.088-5.564-25.375-5.59-25.4-.01-.012-1.13-.013-2.486-.003l-2.466.018.515.265c2.066 1.065 3.27 2.856 3.843 5.72.544 2.714.632 9.108.17 12.386-.197 1.395-.614 2.828-1.105 3.798a6.6 6.6 0 0 1-3.217 3.034l-.55.24h5.443c3.024.001 5.443-.025 5.443-.058zm14.628-12.68v-12.74h-1.156l-.07.327c-.157.728-5.649 24.921-5.683 25.032-.034.114.16.12 3.436.12h3.473zm17.1 0v-12.74h-2.266v4.67h-8.86v5.22h8.311v4.876h-8.31v5.906h9.271v4.807h1.855zm10.78 12.722c-.042-.308-5.283-17.597-5.34-17.616-.064-.022-.083 1.932-.083 8.803v8.83h2.713c1.492 0 2.712-.008 2.71-.017m13.463-10.387v-10.405h-5.425v-4.67h-1.236v25.48h6.661zm16.031 10.027c-1.966-.989-3.038-2.58-3.493-5.185-.198-1.138-.24-3.19-.243-11.658l-.002-8.259h-.892v4.67h-5.426v20.809h10.807zm19.475-10.027v-10.405h-5.357v-4.67h-.956l-.024 9.564c-.024 9.518-.025 9.566-.175 10.348-.375 1.95-.943 3.136-1.979 4.132a5.9 5.9 0 0 1-1.81 1.208l-.515.226h5.408l5.408.001zm11.332 0v-10.405h-5.288v20.809h5.288zM41.178 213.91c.538-.225.874-.724 1.087-1.614.114-.476.124-1.196.146-10.418l.022-9.907h-9.55v17.444h5.541l.041 1.292c.07 2.19.344 2.882 1.269 3.212.355.126 1.13.122 1.444-.01m19.325.036c.432-.12.896-.483 1.14-.89.712-1.192.908-2.999.908-8.38 0-5.114-.173-6.944-.768-8.154-.41-.831-1.034-1.196-2.047-1.196-1.604 0-2.231.872-2.583 3.593-.146 1.129-.217 8.25-.101 10.103.198 3.167.654 4.424 1.763 4.857.38.148 1.268.183 1.688.067m91.85-.152c.554-.286.89-.736 1.17-1.563.121-.36.128-.844.146-10.319l.02-9.94h-4.88v9.776c0 5.764.026 9.916.064 10.115.135.71.346 1.139.762 1.549.51.502.827.61 1.715.582.545-.017.71-.05 1.002-.2m-73.836-2.198c.02-.085.701-4.435 1.514-9.667.813-5.23 1.496-9.612 1.518-9.734l.04-.224h-6.27l.04.224a6268 6268 0 0 1 2.988 19.486c0 .135.135.067.17-.085m39.73-11.315v-8.31h-2.506c-1.864 0-2.506.02-2.506.08 0 .045 1.097 3.769 2.438 8.277 1.34 4.507 2.438 8.21 2.438 8.23 0 .018.03.033.068.033.046 0 .069-2.816.069-8.31M78.76 179.197c7.331-.344 12.832-1.93 16.787-4.84.874-.644 1.126-.866 3.79-3.332 4.18-3.868 7.824-7.181 9.312-8.463 2.097-1.806 3.517-3.814 4.653-6.579 1.774-4.315 2.402-9.541 2.028-16.892-.276-5.413-1.254-24.22-2.644-50.82l-.763-14.629c-.119-2.285-.22-4.158-.224-4.163-.021-.022-16.33-.234-17.9-.233l-1.751.001-5.975 5.425-5.974 5.426.02.463c.01.256.824 15.9 1.81 34.768 1.688 32.364 1.954 37.978 1.798 37.978-.1 0-.838-.457-1.245-.771-1.734-1.337-2.946-4.274-3.583-8.682-.206-1.423-.392-3.55-.524-5.965-.064-1.17-.12-2.135-.126-2.143s-3.455-.061-7.665-.118-8.247-.117-8.972-.132l-1.318-.028-6.022 5.465-6.02 5.466.044.964c.23 4.951.554 8.107 1.148 11.164 1.912 9.846 6.516 15.832 14.482 18.829 3.685 1.386 9.403 2.096 14.834 1.841m67.476-6.04 6.012-5.457-.042-.655c-.023-.36-.237-4.42-.476-9.02-.239-4.602-.448-8.381-.465-8.398s-2.895-.073-6.395-.123-6.38-.107-6.4-.126c-.018-.02 2.172-2.037 4.869-4.485l4.902-4.45.046-1.586c.596-20.547.301-46.443-.715-62.845-.128-2.07-.413-6.035-.435-6.051-.005-.004-4.233-.063-9.395-.131l-9.385-.124-.377.337c-.208.186-2.916 2.64-6.02 5.454l-5.641 5.116.04 1.374c.405 13.703 2.11 34.654 4.539 55.765.541 4.706 1.637 13.338 1.7 13.403.007.006 1.755.037 3.885.069l3.873.057-4.92 4.464c-4.708 4.272-4.92 4.475-4.922 4.705-.003.24.904 17.88.92 17.9.01.014 18.514.284 18.67.273.066-.005 2.825-2.464 6.132-5.466" style="fill:#00000000" transform="translate(-26.77 -62.654)"/><path d="M139.233 139.287c-2-.031-3.657-.08-3.683-.109-.115-.128-1.326-9.826-2.086-16.706-2.184-19.778-3.623-37.861-3.995-50.196l-.046-1.539 1.538.044c.845.024 4.592.08 8.326.126 6.754.083 6.789.084 6.84.225.054.147.277 3.03.45 5.807.924 14.915 1.234 42.64.679 60.899l-.047 1.528-2.17-.011a704 704 0 0 1-5.806-.068" style="fill:#fd99c7" transform="translate(-26.77 -62.654)"/><path d="M109.875 227.683c-.708-.15-1.1-.643-1.158-1.458l-.034-.464h1.241l.048.408c.056.48.135.607.412.66.275.053.44-.08.518-.417.034-.15.064-1.3.065-2.557l.002-2.283h1.381l-.021 2.455c-.02 2.335-.028 2.47-.167 2.764-.176.374-.45.642-.808.791-.326.136-1.068.187-1.478.1zm28.037.003c-.614-.131-1.04-.498-1.26-1.085-.314-.84-.313-3.177.001-4.018.258-.688.769-1.042 1.62-1.12.59-.056 1.263.1 1.608.372.31.245.595.821.684 1.385.091.58.09 2.177-.001 2.743-.142.875-.432 1.313-1.05 1.586-.375.166-1.152.232-1.602.137m.828-.892c.095-.036.229-.167.297-.291.109-.2.123-.42.123-1.91 0-1.843-.03-2.008-.398-2.184-.33-.158-.59-.048-.758.32-.134.295-.146.438-.147 1.83-.001 1.312.015 1.555.126 1.843.16.414.388.533.757.392m-46.52-2.2v-3.022h1.258c1.439 0 1.805.072 2.171.428.364.353.51.752.51 1.392 0 .831-.254 1.307-.869 1.627-.227.119-.44.157-.993.18l-.704.029v2.388h-1.374zm4.6 0v-3.022h1.374v4.945h2.122l.021.39c.019.352.09.115.745-2.456l.725-2.845h1.775l.693 2.816c.38 1.549.714 2.9.741 3.005l.049.189h-1.423l-.089-.498a7 7 0 0 0-.121-.584c-.024-.061-.245-.086-.776-.086h-.742l-.037.189-.113.584-.077.395h-4.866zm9.066.55v-2.473h-1.236v-1.099h3.915v1.099h-1.305v4.945h-1.374zm6.893 2.351c.075-.257 1.486-5.844 1.486-5.882 0-.023.398-.041.884-.041h.884l.756 3.022.755 3.022h-1.414l-.069-.327c-.038-.179-.09-.443-.116-.586l-.048-.26-.765.02-.764.02-.097.566-.096.567h-.715c-.649 0-.712-.012-.68-.12zm7.255-2.895v-3.028h1.26c.888 0 1.354.029 1.582.097.985.297 1.337 1.207 1.26 3.254-.058 1.536-.305 2.156-.991 2.493-.307.15-.427.163-1.72.187l-1.391.025zm2.387 1.831c.25-.268.308-.538.343-1.631.039-1.223-.043-1.783-.296-2.036-.137-.137-.231-.162-.611-.162h-.45v3.983h.434c.362 0 .46-.025.58-.154m4.137 1.149c0-.02.34-1.365.755-2.99.416-1.623.756-2.967.756-2.985s.399-.033.886-.033h.886l.729 2.97c.4 1.634.728 2.994.727 3.022 0 .028-.307.052-.683.052-.773 0-.703.059-.832-.704l-.08-.464h-1.542l-.091.584-.091.584h-.71c-.39 0-.71-.017-.71-.036m5.22-2.99v-3.025l1.459.02c1.298.02 1.489.037 1.73.159.596.303.9 1.035.742 1.788-.102.486-.293.75-.69.952l-.317.161.222.05c.314.068.614.345.697.642.038.139.07.485.072.768.002.683.107 1.381.218 1.452.05.032-.246.057-.678.058-.72 0-.771-.008-.814-.143-.025-.08-.069-.579-.097-1.11-.05-.938-.057-.973-.238-1.128-.145-.125-.267-.16-.56-.16h-.373v2.541h-1.374zm-6.937-.382c0-.224.034-.285.207-.384.216-.123.342-.36.342-.642 0-.15-.03-.168-.274-.168h-.275v-1.442h1.32l-.028.944c-.023.767-.055 1.004-.17 1.26-.17.373-.476.612-.85.662l-.272.037zm-50.776-45.079c-6.36-.346-10.893-1.634-14.789-4.2-5.41-3.564-8.628-9.314-10.042-17.947-.437-2.67-.807-6.87-.85-9.654l-.015-.93 5.97-5.422 5.97-5.422 1.757.021c4.986.06 16.1.223 16.113.238.008.009.05.68.092 1.493.266 5.031.656 7.992 1.376 10.445.853 2.907 2.025 4.6 3.81 5.501l.404.205-.042-1.98c-.023-1.09-.858-17.572-1.856-36.629s-1.8-34.671-1.782-34.701c.017-.03 2.721-2.496 6.01-5.482l5.977-5.427 1.52.04c.835.023 5.212.09 9.726.15 4.514.059 8.211.112 8.217.118.014.015.088 1.401.815 15.36l1.507 28.912c1.434 27.467 1.41 26.99 1.41 29.232-.003 3.796-.296 6.567-.997 9.411-1.058 4.292-3.024 7.76-5.63 9.93-.99.824-8.618 7.763-11.634 10.583-4.275 3.997-10.935 6.065-19.923 6.187-1.114.015-2.515 0-3.114-.032m19.185-11.976c7.234-.744 12.163-2.672 15.62-6.11 3.847-3.826 5.763-10.34 5.577-18.964-.036-1.674-3.647-71.589-3.7-71.628-.032-.024-17.578-.253-17.6-.23-.012.012.779 15.335 1.756 34.051s1.81 34.904 1.85 35.973c.15 3.95-.182 7.577-.892 9.766-.305.941-.888 2.086-1.336 2.626-.997 1.2-2.434 1.983-4.34 2.364-.77.154-3.35.176-4.146.035-2.004-.353-3.499-1.055-4.691-2.203-.67-.645-1.04-1.162-1.526-2.135-1.3-2.6-2.004-5.95-2.332-11.092l-.146-2.283-.04-.635h-.663c-.365 0-3.95-.048-7.968-.107s-7.32-.092-7.338-.074c-.042.043.091 2.634.224 4.336.76 9.76 3.044 15.915 7.513 20.246 3.654 3.54 8.69 5.555 15.215 6.088l1.202.099c.17.014 1.746.016 3.503.006 2.306-.015 3.489-.05 4.258-.13" style="fill:#f19ec3" transform="translate(-26.77 -62.654)"/><path d="M86.45 167.244c-9.928-.35-16.671-3.74-20.598-10.352-2.01-3.387-3.282-7.613-3.95-13.13-.23-1.905-.59-7.095-.498-7.186.02-.02 3.415.012 7.545.072s7.684.109 7.898.109h.39l.037.497c.021.274.088 1.286.149 2.248.344 5.49 1.137 9.113 2.548 11.642.833 1.493 1.786 2.386 3.33 3.122 1.448.69 2.642.923 4.73.926 1.684.002 2.3-.084 3.514-.487 3.124-1.038 4.55-3.394 5.106-8.437.178-1.616.242-3.925.166-6.004-.038-1.042-.869-17.207-1.846-35.923s-1.766-34.04-1.754-34.053c.026-.028 17.432.206 17.466.234.013.011.844 15.652 1.846 34.758 1.787 34.062 1.823 34.795 1.828 37.657.006 3.057-.057 4.145-.37 6.318-.749 5.201-2.552 9.217-5.343 11.895-3.556 3.414-8.715 5.368-15.738 5.962-.784.066-4.518.215-4.841.193-.076-.005-.802-.033-1.614-.062" style="fill:#fef054" transform="translate(-26.77 -62.654)"/><path d="M148.759 227.685c-.878-.187-1.323-.743-1.323-1.652v-.203h1.373v.3c0 .532.378.82.867.659.398-.132.56-.662.333-1.1-.112-.216-.31-.334-1.164-.688-.956-.396-1.34-.907-1.34-1.78 0-.562.163-.974.512-1.296.443-.408 1.214-.574 1.994-.428.814.151 1.272.62 1.366 1.397l.04.326h-1.372v-.203c0-.297-.13-.532-.342-.62-.564-.234-1.034.427-.726 1.022.1.193.3.31 1.343.783.91.412 1.21.882 1.153 1.816-.067 1.12-.636 1.64-1.857 1.7-.312.016-.697.001-.857-.033m11.098-.04c-.406-.125-.769-.519-.924-1.004-.152-.473-.22-2.85-.1-3.533.084-.486.316-1.014.53-1.207.318-.287.789-.425 1.464-.427.744-.003 1.074.088 1.418.39.319.28.432.52.496 1.05l.054.444h-1.332l-.034-.309q-.067-.6-.47-.689c-.276-.06-.547.127-.656.455-.12.356-.177 1.924-.103 2.801.072.851.17 1.08.51 1.193.457.153.804-.306.804-1.065v-.464h-.618v-.892h1.923v3.234l-.463-.02-.464-.02-.034-.26-.035-.258-.19.239c-.322.406-1.09.554-1.776.342zm14.59.04q-1.006-.213-1.303-1.294c-.103-.374-.126-.71-.126-1.832 0-1.618.087-2.039.528-2.54.37-.42.746-.551 1.566-.546 1.018.006 1.549.325 1.87 1.125.144.356.154.488.155 1.961.001 1.37-.016 1.63-.128 1.95-.157.452-.53.88-.915 1.05-.336.15-1.22.217-1.646.127m1.055-1.066c.205-.23.262-.721.253-2.197-.008-1.365-.074-1.74-.345-1.954-.383-.301-.79-.082-.917.496-.12.54-.066 3.248.07 3.516.202.402.645.467.939.14m-21.653.876c.02-.066.366-1.426.771-3.021l.736-2.902h1.758l.068.257c.038.142.374 1.502.747 3.022l.679 2.764h-1.409l-.069-.326c-.038-.18-.09-.442-.116-.583l-.048-.258h-.743c-.843 0-.764-.062-.894.704l-.078.463h-.72c-.651 0-.715-.01-.682-.12m9.261.035c.018-.048.368-1.407.78-3.022l.747-2.936h1.748l.068.257c.037.142.364 1.448.727 2.902.362 1.454.674 2.698.694 2.764.033.11-.03.12-.684.12h-.72l-.037-.188-.113-.584-.077-.395h-.746c-.844 0-.756-.069-.894.704l-.082.463h-.721c-.548 0-.713-.02-.69-.085m5.203-2.941v-3.027l1.494.022c1.486.022 1.495.023 1.813.21.98.576.885 2.4-.142 2.74-.147.05-.204.094-.143.112.057.017.232.09.389.164.393.184.485.446.542 1.544.025.49.086.968.136 1.073l.09.188h-1.494l-.034-.223a17 17 0 0 1-.076-.996c-.023-.425-.072-.861-.11-.97-.085-.244-.314-.352-.751-.352h-.34v2.541h-1.374zm2.27-.547c.389-.208.454-1.05.105-1.35-.148-.127-.266-.159-.593-.159h-.408v1.58h.382c.21 0 .442-.032.514-.07m-18.477.175c0-.26.023-.303.201-.377.207-.085.348-.355.348-.664 0-.143-.032-.162-.275-.162h-.274v-1.442h1.304v.846c0 1.042-.105 1.455-.45 1.757-.132.117-.263.213-.29.214s-.165.029-.307.062l-.257.06zm-11.397-57.7c-3.506-.052-6.228-.12-6.25-.155-.062-.1-.862-15.859-.808-15.913.043-.043 16.605.155 16.638.198.007.01.186 3.431.399 7.605.212 4.174.404 7.767.425 7.984l.038.395-2.115-.01c-1.164-.006-4.91-.052-8.327-.104" style="fill:#f3a492" transform="translate(-26.77 -62.654)"/><path d="M104.407 217.367c-.018-.048-.025-1.139-.015-2.423l.02-2.334.016 2.386.016 2.387h1.716l.018-12.654.018-12.654v12.671l-.001 12.671-.877.02c-.666.014-.885-.003-.91-.07zm67.646-.002c-.018-.047-.024-4.721-.014-10.387l.018-10.302.016 10.352.017 10.353 2.593.018 2.593.02-2.595.016c-2.025.012-2.602-.003-2.627-.07" style="fill:#9a6aaa" transform="translate(-26.77 -62.654)"/><path d="M88.244 226.055c-.286-.14-.516-.601-.446-.892.172-.712.99-.932 1.463-.393.352.401.269.934-.195 1.247-.274.185-.504.195-.822.038m55.44-.01c-.311-.195-.438-.411-.438-.746 0-.238.044-.342.223-.537.436-.472 1.112-.36 1.373.23.127.288.128.318.021.6-.193.505-.754.72-1.18.453M32.89 214.755c.006-1.79.028-2.495.068-2.215.323 2.216 1.494 3.915 3.244 4.71l.285.13-1.802.002-1.803.002zm12.117 2.367c1.827-.97 2.804-2.464 3.312-5.062.093-.478.11-1.803.132-10.284l.025-9.735 3.414.001h3.415l-.506.276c-2.462 1.343-3.614 3.823-4.001 8.617-.108 1.333-.11 6.085-.002 7.417.29 3.593.938 5.692 2.251 7.28.394.476 1.28 1.16 1.91 1.474l.554.277-5.494-.002-5.494-.002zm19.57-.033c.713-.378 1.12-.662 1.568-1.101 1.53-1.496 2.339-3.806 2.58-7.362.183-2.724.139-7.051-.094-9.033-.323-2.75-1.024-4.635-2.223-5.981-.376-.422-1.172-1.025-1.751-1.327l-.469-.244h4.678l.037.155c.064.265 5.528 25.138 5.528 25.163 0 .013-2.34.023-5.202.022l-5.202-.002zm17.718.208c.017-.047 1.298-5.68 2.847-12.516l2.853-12.585c.034-.144.074-.155.55-.155h.514v25.342h-3.397c-2.688 0-3.39-.018-3.367-.086m22.132-2.3-.018-2.387-4.619-.018-4.618-.018v-5.768h8.309v-4.944h-8.309v-5.151h8.859v-4.67h2.129v25.342h-1.715zm7.234-6.388c.006-7.587.02-8.731.102-8.464.053.17 1.234 4.118 2.626 8.773l2.53 8.465h-5.265zm12.217-3.897V192.04h1.1v4.67h5.425v20.672h-6.525zm12.637 2.335V196.71h5.425v-4.67h.82l.024 9.632c.022 8.722.035 9.687.14 10.216.274 1.37.69 2.488 1.22 3.28.516.768 1.389 1.513 2.33 1.988l.445.225h-10.404zm19.62 10.036c1.897-.996 2.89-2.515 3.399-5.194.148-.784.15-.868.174-10.32l.025-9.528h.819v4.67h5.425v20.672l-5.202-.002-5.202-.002zm15.954-10.036V196.71h5.151v20.672h-5.151zM39.716 213.85c-.38-.138-.809-.627-.953-1.087-.157-.499-.246-1.399-.247-2.506l-.002-.91h-5.631v-17.306h9.482l-.023 9.872c-.02 8.986-.033 9.916-.138 10.353-.169.697-.442 1.192-.795 1.44-.264.185-.359.21-.857.226-.36.011-.66-.018-.836-.082m19.133-.019c-.879-.31-1.379-1.37-1.623-3.436-.239-2.02-.239-9.415 0-11.435.315-2.662.955-3.573 2.513-3.576 1.566-.003 2.241.942 2.578 3.61.09.72.121 1.727.147 4.812.034 4.001-.02 5.702-.227 7.108-.324 2.196-1.029 3.044-2.521 3.03-.322-.004-.695-.052-.867-.113m91.588.019c-.725-.259-1.192-.823-1.42-1.715-.137-.533-.14-.732-.14-10.318v-9.776h4.742l-.018 9.907c-.019 9.441-.025 9.924-.147 10.284-.407 1.205-1.077 1.72-2.227 1.714-.291-.002-.647-.045-.79-.096m-72.041-2.408c-.025-.113-.696-4.455-1.49-9.649-.796-5.194-1.462-9.512-1.48-9.597l-.035-.155h6.126l-.04.189c-.02.104-.703 4.47-1.516 9.7-.812 5.232-1.487 9.559-1.499 9.615-.011.057-.041.01-.066-.103m37.35-11.108a4721 4721 0 0 1-2.427-8.173c-.03-.113.118-.12 2.414-.12h2.446v8.173c0 4.494-.009 8.172-.019 8.172s-1.097-3.623-2.414-8.052" style="fill:#9461a5" transform="translate(-26.77 -62.654)"/><path d="M34.168 227.682c-.598-.15-.9-.432-1.158-1.078-.148-.372-.158-.491-.16-1.942-.001-1.294.018-1.61.121-1.943.146-.471.513-.91.91-1.086.383-.17 1.088-.231 1.554-.135.87.181 1.287.685 1.348 1.63l.032.504h-1.303l-.044-.419c-.057-.552-.166-.763-.43-.84-.32-.09-.587.062-.704.402-.123.356-.136 3.09-.017 3.515.133.479.442.666.807.49.231-.11.345-.401.404-1.036l.044-.464h1.314l-.042.55c-.097 1.253-.66 1.82-1.88 1.888-.295.017-.653 0-.796-.036m9.075-.02c-.806-.182-1.226-.676-1.226-1.442v-.39h1.305v.208c0 .545.338.877.803.79.322-.06.502-.326.502-.74 0-.293-.031-.37-.224-.56-.13-.13-.464-.315-.807-.45-1.046-.412-1.383-.743-1.523-1.494-.158-.854.189-1.604.893-1.93.335-.155.483-.18 1.042-.18.558 0 .709.026 1.038.178.558.258.884.766.885 1.38v.188h-1.303l-.044-.279c-.066-.411-.228-.576-.568-.576-.4 0-.58.195-.586.641-.007.473.21.686 1.02 1.007 1.185.47 1.562.905 1.562 1.804 0 .71-.11 1.027-.482 1.388-.196.19-.438.345-.623.4-.439.132-1.217.159-1.664.057m39.237.022c-.437-.093-.84-.342-1.056-.652-.337-.487-.43-1.015-.43-2.438 0-1.917.209-2.51 1.027-2.919.373-.187.474-.206 1.072-.205.596.001.7.022 1.062.207.813.416 1.019 1.005 1.019 2.917 0 .98-.027 1.37-.117 1.704-.25.926-.786 1.357-1.765 1.417a4 4 0 0 1-.812-.031m.993-.97c.209-.173.265-.634.262-2.155-.003-1.697-.057-1.988-.4-2.152-.307-.148-.597-.034-.765.3-.125.25-.137.41-.137 1.887 0 1.755.054 2.055.392 2.197.18.075.513.036.648-.077m-46.47.863c0-.02.34-1.368.756-2.993.415-1.624.755-2.967.755-2.983s.397-.03.882-.03h.882l.733 2.971c.403 1.634.732 2.994.732 3.022-.002.094-1.356.06-1.392-.034a7 7 0 0 1-.122-.584l-.088-.498h-1.536l-.09.584-.091.584h-.71c-.391 0-.71-.018-.71-.039m10.577-2.434v-2.472h-1.305v-1.099h3.983v1.099h-1.305v4.945H47.58zm3.09-.55v-3.021h3.434v1.099h-2.06v1.305h1.991v1.098h-1.991v1.442h2.198v1.1H50.67zm4.12 0v-3.021h1.442v4.945h2.061v1.099h-3.502zm3.847 0v-3.021h1.373v4.945h2.129v1.099h-3.502Zm5.974.007v-3.028h1.259c1.473 0 1.81.07 2.196.456.518.517.745 1.728.613 3.26-.085.985-.252 1.51-.582 1.83-.422.408-.631.456-2.13.484l-1.356.026zm2.368 1.821c.262-.262.334-.662.337-1.896.005-1.656-.12-1.923-.898-1.923h-.433v3.983h.415c.346 0 .443-.027.58-.164m4.158 1.108c0-.047.336-1.399.745-3.004l.744-2.919h1.763l.74 2.953c.408 1.624.742 2.976.743 3.005s-.317.051-.708.051h-.71l-.097-.566-.096-.567-.765-.02-.764-.018-.083.465c-.138.773-.06.706-.831.706-.5 0-.682-.023-.681-.085zm5.15-2.935v-3.022h1.356c.746 0 1.468.032 1.605.07.693.192 1.022.679 1.022 1.513 0 .696-.18 1.054-.647 1.295l-.33.17.354.155c.484.214.559.412.623 1.655.031.614.082 1.016.136 1.081.076.092 0 .104-.639.104-.495 0-.742-.026-.777-.083-.028-.046-.072-.518-.096-1.049-.025-.54-.081-1.034-.128-1.121-.107-.2-.34-.288-.767-.288h-.339v2.541h-1.374zm2.408-.682c.177-.177.201-.249.199-.6-.003-.598-.202-.779-.852-.779h-.382v1.58h.417c.37 0 .44-.023.618-.201m-9.276.274c0-.205.031-.28.131-.312.2-.063.3-.22.35-.555l.046-.305h-.527v-1.442h1.246l-.022 1.013c-.02.866-.043 1.052-.166 1.287-.16.306-.57.581-.87.583-.174.001-.188-.02-.188-.269m61.192-45.758c-5.005-.073-9.104-.138-9.11-.145-.02-.02-.92-17.428-.92-17.743l.002-.286 4.927-4.472c2.71-2.46 4.937-4.497 4.947-4.527s-1.734-.076-3.877-.103-3.907-.058-3.919-.07c-.094-.094-1.3-9.739-2.005-16.043-2.279-20.355-3.825-39.686-4.233-52.92l-.044-1.447 5.99-5.438 5.99-5.438.97-.001c.972-.002 17.719.22 17.74.234.059.04.501 6.755.673 10.206.828 16.592 1.028 41.3.476 58.705l-.047 1.463-4.967 4.508c-2.732 2.48-4.955 4.52-4.94 4.535s2.921.068 6.46.12 6.452.11 6.473.131c.052.052.98 17.905.934 17.978-.02.033-2.725 2.5-6.01 5.482-5.422 4.923-5.993 5.422-6.192 5.414-.12-.005-4.314-.07-9.318-.143m20.576-12.055c-.021-.18-.215-3.803-.43-8.052-.216-4.25-.396-7.732-.4-7.74-.02-.04-16.736-.24-16.775-.2-.05.05.76 16.021.814 16.076.034.033 11.7.216 14.849.232l1.98.01zm-3.865-28.535.13-4.55c.118-4.098.117-29.159 0-34.235-.205-8.857-.396-14.428-.672-19.642-.205-3.89-.532-8.352-.617-8.437-.022-.023-2.766-.077-6.097-.121-3.331-.045-7.104-.1-8.383-.122l-2.327-.04.045 1.458c.428 13.755 2.043 33.408 4.503 54.786.5 4.346 1.521 12.256 1.59 12.325.039.038 6.453.146 9.716.163l2.067.012z" style="fill:#18b1a3" transform="translate(-26.77 -62.654)"/></svg>